<svg xmlns="http://www.w3.org/2000/svg" width="256" height="256" viewBox="0 0 256 256">
  <defs>
    <linearGradient id="bg" x1="0%" y1="0%" x2="100%" y2="100%">
      <stop offset="0%" style="stop-color:#3b82f6"/>
      <stop offset="100%" style="stop-color:#1d4ed8"/>
    </linearGradient>
  </defs>
  <!-- Rounded square background -->
  <rect x="16" y="16" width="224" height="224" rx="40" fill="url(#bg)"/>
  <!-- Document page -->
  <path d="M80 48 h60 l36 36 v124 a8 8 0 0 1 -8 8 H80 a8 8 0 0 1 -8 -8 V56 a8 8 0 0 1 8 -8z" fill="white" opacity="0.95"/>
  <!-- Folded corner -->
  <path d="M140 48 v28 a8 8 0 0 0 8 8 h28z" fill="#bfdbfe"/>
  <!-- Text lines -->
  <rect x="92" y="104" width="72" height="6" rx="3" fill="#3b82f6" opacity="0.7"/>
  <rect x="92" y="120" width="56" height="6" rx="3" fill="#3b82f6" opacity="0.5"/>
  <rect x="92" y="136" width="64" height="6" rx="3" fill="#3b82f6" opacity="0.5"/>
  <rect x="92" y="152" width="48" height="6" rx="3" fill="#3b82f6" opacity="0.3"/>
  <rect x="92" y="168" width="60" height="6" rx="3" fill="#3b82f6" opacity="0.3"/>
  <!-- Pencil/edit indicator -->
  <g transform="translate(160, 170) rotate(-45)">
    <rect x="0" y="0" width="12" height="52" rx="2" fill="#f59e0b"/>
    <polygon points="2,52 10,52 6,64" fill="#374151"/>
    <rect x="0" y="0" width="12" height="8" rx="2" fill="#fbbf24"/>
  </g>
</svg>
